<svg width="152.308" height="91.201" viewBox="0 0 152.308 91.201" xmlns="http://www.w3.org/2000/svg"><g id="svgGroup" stroke-linecap="round" fill-rule="evenodd" font-size="9pt" stroke="#059669" stroke-width="0.25mm" fill="#059669" style="stroke:#059669;stroke-width:0.25mm;fill:#059669"><path d="M 152.305 22.201 Q 152.305 30.701 146.305 36.851 Q 140.305 43.001 128.805 45.701 Q 135.005 47.401 138.205 51.251 Q 141.405 55.101 141.405 60.101 Q 141.405 68.001 136.455 73.801 Q 131.505 79.601 122.005 82.751 Q 112.505 85.901 99.105 85.901 Q 94.105 85.901 91.105 85.601 Q 91.005 88.401 88.705 89.801 Q 86.405 91.201 82.805 91.201 Q 79.205 91.201 77.855 89.601 Q 76.505 88.001 76.705 84.901 Q 77.605 70.901 80.205 55.551 Q 82.805 40.201 86.805 25.901 Q 87.505 23.401 89.605 22.401 Q 91.705 21.401 95.105 21.401 Q 101.205 21.401 101.205 24.801 Q 101.205 26.201 100.605 28.001 Q 98.005 35.801 95.405 49.151 Q 92.805 62.501 91.705 74.601 Q 96.505 75.001 99.505 75.001 Q 113.505 75.001 120.055 70.951 Q 126.605 66.901 126.605 60.601 Q 126.605 56.201 122.855 53.201 Q 119.105 50.201 110.305 49.901 Q 108.305 49.801 107.505 48.901 Q 106.705 48.001 106.705 46.001 Q 106.705 43.101 107.905 41.301 Q 109.105 39.501 112.305 39.401 Q 119.405 39.201 125.155 37.301 Q 130.905 35.401 134.205 31.951 Q 137.505 28.501 137.505 23.901 Q 137.505 18.101 131.805 14.751 Q 126.105 11.401 114.305 11.401 Q 103.605 11.401 93.605 14.151 Q 83.605 16.901 76.605 21.101 Q 73.405 23.001 71.205 23.001 Q 69.405 23.001 68.455 21.751 Q 67.505 20.501 67.505 18.601 Q 67.505 16.101 68.555 14.301 Q 69.605 12.501 73.605 10.201 Q 82.005 5.401 93.305 2.701 Q 104.605 0.001 116.405 0.001 Q 134.505 0.001 143.405 6.101 Q 152.305 12.201 152.305 22.201 Z M 72.405 68.001 Q 73.905 67.401 74.905 67.401 Q 76.505 67.401 77.305 68.601 Q 78.105 69.801 78.105 71.701 Q 78.105 74.701 76.655 76.801 Q 75.205 78.901 71.705 80.601 Q 65.805 83.401 56.405 85.051 Q 47.005 86.701 37.905 86.701 Q 25.305 86.701 16.805 83.851 Q 8.305 81.001 4.155 76.001 Q 0.005 71.001 0.005 64.701 Q 0.005 56.101 5.555 50.051 Q 11.105 44.001 21.905 41.301 Q 16.005 39.601 12.855 35.301 Q 9.705 31.001 9.705 25.701 Q 9.705 18.501 14.255 12.951 Q 18.805 7.401 26.505 4.401 Q 34.205 1.401 43.405 1.401 Q 55.805 1.401 62.005 6.751 Q 68.205 12.101 68.205 20.601 Q 68.205 26.501 66.055 30.151 Q 63.905 33.801 59.905 33.801 Q 57.105 33.801 55.505 32.551 Q 53.905 31.301 53.905 28.801 Q 53.905 27.101 54.405 25.101 Q 54.905 21.801 54.905 20.601 Q 54.905 17.001 52.205 14.751 Q 49.505 12.501 43.205 12.501 Q 34.705 12.501 29.605 16.101 Q 24.505 19.701 24.505 25.801 Q 24.505 30.501 28.355 33.551 Q 32.205 36.601 40.905 36.901 Q 43.105 37.001 44.005 37.901 Q 44.905 38.801 44.905 40.901 Q 44.905 47.501 38.905 47.601 Q 30.605 47.801 25.155 49.901 Q 19.705 52.001 17.255 55.251 Q 14.805 58.501 14.805 62.201 Q 14.805 68.401 20.605 71.551 Q 26.405 74.701 39.005 74.701 Q 47.305 74.701 56.555 72.751 Q 65.805 70.801 72.405 68.001 Z" vector-effect="non-scaling-stroke"/></g></svg>